<svg xmlns="http://www.w3.org/2000/svg" viewBox="50 139.899 396.5400085449219 255"><rect height="100%" width="100%" x="50" y="139.899" fill="rgba(255, 255, 255, 1)"/> <svg xmlns="http://www.w3.org/2000/svg" id="Livello_1" dataName="Livello 1" viewBox="0.0028905868530273438 0.01544046401977539 257.77166748046875 271.8255920410156" height="115" width="109.046875" y="209.899" x="120" preserveAspectRatio="xMinYMin" style="overflow: visible;"><path d="M256.06,174.15l-64.89-95.97c.32-8.59,1.16-42.94-5.96-47.28-4.14-2.53-14.23.26-23.46,3.76l-3.26-4.82s0,0,0,0l-17.22-25.46c-3.07-4.54-9.24-5.73-13.78-2.66L7.74,82.67c-8.04,5.44-10.16,16.37-4.72,24.41l17.22,25.46s0,0,0,0l34.61,51.18c-.96,8.96-2.66,37.15,12.5,45.85,7.31,4.2,14.58,4.07,20.33,2.7l14.19,20.99,7.3,10.79c5.48,8.1,16.49,10.23,24.59,4.75l119.65-80.9c4.54-3.07,5.73-9.24,2.66-13.78ZM71.18,224.85c-8.79-5.08-12.43-17.4-11.39-33.81l24.38,36.06c-4.87.6-9.26-.1-12.99-2.25ZM182.04,34.94c4.45,3.02,4.94,22.91,4.86,36.9l-22.19-32.81c8.92-3.73,15.62-5.25,17.33-4.09ZM130.69,260.33c-5.03,3.4-11.87,2.08-15.27-2.95-3.4-5.03-2.08-11.87,2.95-15.27l117.85-79.68,12.32,18.22-117.86,79.68Z" style="fill: #2d3140; stroke-width: 0px;"></path><path d="M118.38,242.11c-5.03,3.4-6.35,10.24-2.95,15.27,3.4,5.03,10.24,6.35,15.27,2.95l117.86-79.68-12.32-18.22-117.85,79.68Z" style="fill: #fff; stroke-width: 0px;"></path><path d="M60.3,185.34c-2.33,19.26,1.09,33.87,10.87,39.52,18.96,10.95,55.11-15.62,83.47-60.17l-10.6-2.14,19.4-12.74c12.37-22.58,20.27-44.88,23.21-63.43l-12.82-2.58,13.05-11.94c.09-14-.4-33.89-4.86-36.91s-44.29,12.66-67.54,38.98l2.63,19-12.56-6.87c-6.1,8.02-12.02,16.9-17.54,26.47-11.39,19.74-19.41,39.47-23.72,56.87l10.11,22.27-13.1-6.32Z" style="fill: #fcc446; stroke-width: 0px; fill-opacity: 1;"></path><path d="M161.87,61.57c-15.99,26.59-38.73,65.43-54.67,92.6-15.41,27.6-39.5,65.39-52.86,93.65-1.46,3.35,3.09,6.15,5.38,3.11,10.53-14.61,18.86-30.5,27.9-45.97,13.4-23.22,40.14-70.05,53.32-93.38,8.82-15.6,17.6-31.23,26.31-46.89,1.84-3.51-3.15-6.55-5.38-3.1h0Z" style="fill: #2d3140; stroke-width: 0px;"></path><path d="M116.71,182.95c-4.71.51-9.36,1.36-14.01,2.24-3.35.66-7.04,1.47-10.38,2.24-6.32,1.18-4.2,10.22,1.99,8.45,0,0,3.44-.84,3.44-.84,6.88-1.73,13.72-3.61,20.39-6.05,3.4-1.33,2.18-6.39-1.43-6.04h0Z" style="fill: #2d3140; stroke-width: 0px;"></path><path d="M156.08,113.55c-6.76.83-13.44,2.16-20.08,3.63,0,0-3.31.75-3.31.75-3.63.42-5.29,5.18-1.78,7.25,1.34.73,2.47.6,3.56.29l3.3-.81c2.2-.52,4.38-1.13,6.58-1.71,4.37-1.22,8.73-2.47,13.01-4.02,1.45-.53,2.19-2.14,1.66-3.58-.45-1.23-1.69-1.96-2.94-1.81h0Z" style="fill: #2d3140; stroke-width: 0px;"></path><path d="M136.82,71.21c.83,6.76,2.16,13.44,3.63,20.08,0,0,.75,3.31.75,3.31.42,3.63,5.18,5.29,7.25,1.78.73-1.34.6-2.47.29-3.56l-.81-3.3c-.52-2.2-1.13-4.38-1.71-6.58-1.22-4.37-2.47-8.73-4.02-13.01-.53-1.45-2.14-2.19-3.58-1.66-1.23.45-1.96,1.69-1.81,2.94h0Z" style="fill: #2d3140; stroke-width: 0px;"></path><path d="M96.14,129.12c2.9,6.48,6.32,12.7,9.87,18.83,0,0,1.79,3.05,1.79,3.05,3.04,5.67,11.01.91,7.45-4.46,0,0-1.85-3.02-1.85-3.02-3.73-6.03-7.6-11.98-11.94-17.6-2.29-2.84-6.75-.14-5.33,3.19h0Z" style="fill: #2d3140; stroke-width: 0px;"></path><path d="M176.58,213.01c-.53,0-1.04-.25-1.36-.72-.51-.75-.31-1.77.44-2.27l44.2-29.88c.75-.51,1.77-.31,2.27.44.51.75.31,1.77-.44,2.27l-44.2,29.88c-.28.19-.6.28-.91.28Z" style="fill: #2d3140; stroke-width: 0px;"></path><path d="M123.25,249.07c-.53,0-1.04-.25-1.36-.72-.51-.75-.31-1.77.44-2.27l27.03-18.27c.75-.51,1.77-.31,2.27.44.51.75.31,1.77-.44,2.27l-27.03,18.27c-.28.19-.6.28-.91.28Z" style="fill: #2d3140; stroke-width: 0px;"></path><path d="M228.86,186.94c-.53,0-1.04-.25-1.36-.72-.51-.75-.31-1.77.44-2.27l17.28-11.69c.75-.51,1.77-.31,2.27.44.51.75.31,1.77-.44,2.27l-17.28,11.69c-.28.19-.6.28-.91.28Z" style="fill: #2d3140; stroke-width: 0px;"></path><path d="M137.99,248.38c-.53,0-1.04-.25-1.36-.72-.51-.75-.31-1.77.44-2.27l50.59-34.21c.75-.51,1.77-.31,2.27.44.51.75.31,1.77-.44,2.27l-50.59,34.21c-.28.19-.6.28-.91.28Z" style="fill: #2d3140; stroke-width: 0px;"></path></svg> <svg x="243.5" y="243.50000000000003" viewBox="1.4500000476837158 10.5 133.04000854492188 28.31999969482422" height="28.31999969482422" width="133.04000854492188" style="overflow: visible;"><g fill="#2d3140" fill-opacity="1" style=""><path d="M21.32 38.44L1.45 38.44L1.45 36.18L4.37 35.68L4.37 15.14L1.45 14.63L1.45 12.36L20.76 12.36L20.76 18.63L17.93 18.63L17.54 15.08L7.90 15.08L7.90 23.57L17.52 23.57L17.52 26.35L7.90 26.35L7.90 35.79L18.11 35.79L18.50 32.19L21.32 32.19L21.32 38.44ZM31.99 38.82L31.99 38.82Q29.63 38.82 27.93 37.64Q26.24 36.47 25.35 34.37Q24.45 32.28 24.45 29.48L24.45 29.48L24.45 29.11Q24.45 25.99 25.35 23.64Q26.24 21.30 27.94 20.00Q29.65 18.70 32.03 18.70L32.03 18.70Q33.75 18.70 35.06 19.34Q36.38 19.97 37.31 21.17L37.31 21.17L37.31 13.27L34.39 12.77L34.39 10.50L37.31 10.50L40.84 10.50L40.84 35.68L43.76 36.18L43.76 38.44L37.78 38.44L37.49 36.13Q36.54 37.46 35.17 38.14Q33.80 38.82 31.99 38.82ZM32.89 35.95L32.89 35.95Q34.46 35.95 35.54 35.23Q36.61 34.52 37.31 33.21L37.31 33.21L37.31 24.22Q36.63 23.00 35.54 22.28Q34.45 21.57 32.92 21.57L32.92 21.57Q31.24 21.57 30.15 22.53Q29.05 23.48 28.52 25.18Q27.98 26.87 27.98 29.11L27.98 29.11L27.98 29.48Q27.98 32.40 29.18 34.18Q30.38 35.95 32.89 35.95ZM54.72 38.82L54.72 38.82Q51.57 38.82 49.80 36.79Q48.02 34.77 48.02 30.49L48.02 30.49L48.02 21.84L45.80 21.33L45.80 19.06L48.02 19.06L51.55 19.06L51.55 30.52Q51.55 33.62 52.47 34.79Q53.38 35.95 55.31 35.95L55.31 35.95Q57.20 35.95 58.42 35.19Q59.65 34.43 60.28 33.03L60.28 33.03L60.28 21.84L57.68 21.33L57.68 19.06L60.28 19.06L63.81 19.06L63.81 35.68L66.03 36.18L66.03 38.44L60.63 38.44L60.40 35.57Q59.49 37.13 58.05 37.98Q56.60 38.82 54.72 38.82ZM76.11 38.82L76.11 38.82Q73.75 38.82 72.05 37.64Q70.36 36.47 69.47 34.37Q68.57 32.28 68.57 29.48L68.57 29.48L68.57 29.11Q68.57 25.99 69.47 23.64Q70.36 21.30 72.06 20.00Q73.76 18.70 76.15 18.70L76.15 18.70Q77.87 18.70 79.18 19.34Q80.50 19.97 81.43 21.17L81.43 21.17L81.43 13.27L78.51 12.77L78.51 10.50L81.43 10.50L84.96 10.50L84.96 35.68L87.88 36.18L87.88 38.44L81.90 38.44L81.61 36.13Q80.66 37.46 79.29 38.14Q77.92 38.82 76.11 38.82ZM77.01 35.95L77.01 35.95Q78.58 35.95 79.66 35.23Q80.73 34.52 81.43 33.21L81.43 33.21L81.43 24.22Q80.75 23.00 79.66 22.28Q78.57 21.57 77.04 21.57L77.04 21.57Q75.36 21.57 74.27 22.53Q73.17 23.48 72.64 25.18Q72.10 26.87 72.10 29.11L72.10 29.11L72.10 29.48Q72.10 32.40 73.30 34.18Q74.50 35.95 77.01 35.95ZM96.59 38.82L96.59 38.82Q93.56 38.82 91.98 37.34Q90.41 35.86 90.41 33.17L90.41 33.17Q90.41 30.42 92.66 28.74Q94.92 27.07 98.93 27.07L98.93 27.07L102.39 27.07L102.39 25.17Q102.39 23.41 101.32 22.44Q100.26 21.48 98.32 21.48L98.32 21.48Q97.11 21.48 96.21 21.77Q95.31 22.07 94.58 22.59L94.58 22.59L94.20 25.29L91.48 25.29L91.48 20.85Q92.79 19.79 94.53 19.25Q96.26 18.70 98.38 18.70L98.38 18.70Q101.91 18.70 103.91 20.38Q105.92 22.07 105.92 25.20L105.92 25.20L105.92 34.54Q105.92 34.91 105.93 35.27Q105.94 35.63 105.97 35.99L105.97 35.99L107.85 36.18L107.85 38.44L102.78 38.44Q102.62 37.65 102.53 37.03Q102.44 36.40 102.41 35.77L102.41 35.77Q101.39 37.08 99.85 37.95Q98.32 38.82 96.59 38.82ZM97.11 35.86L97.11 35.86Q98.86 35.86 100.31 35.02Q101.76 34.18 102.39 33.00L102.39 33.00L102.39 29.48L98.81 29.48Q96.37 29.48 95.15 30.65Q93.93 31.81 93.93 33.25L93.93 33.25Q93.93 34.52 94.72 35.19Q95.51 35.86 97.11 35.86ZM117.44 38.75L117.44 38.75Q115.29 38.75 114.02 37.48Q112.76 36.22 112.76 33.44L112.76 33.44L112.76 21.67L109.70 21.67L109.70 19.06L112.76 19.06L112.76 14.38L116.29 14.38L116.29 19.06L120.50 19.06L120.50 21.67L116.29 21.67L116.29 33.44Q116.29 34.84 116.84 35.50Q117.40 36.17 118.33 36.17L118.33 36.17Q118.96 36.17 119.73 36.05Q120.50 35.93 120.93 35.84L120.93 35.84L121.41 38.15Q120.64 38.39 119.52 38.57Q118.40 38.75 117.44 38.75ZM130.51 38.75L130.51 38.75Q128.36 38.75 127.10 37.48Q125.84 36.22 125.84 33.44L125.84 33.44L125.84 21.67L122.77 21.67L122.77 19.06L125.84 19.06L125.84 14.38L129.37 14.38L129.37 19.06L133.58 19.06L133.58 21.67L129.37 21.67L129.37 33.44Q129.37 34.84 129.92 35.50Q130.48 36.17 131.41 36.17L131.41 36.17Q132.03 36.17 132.81 36.05Q133.58 35.93 134.01 35.84L134.01 35.84L134.49 38.15Q133.72 38.39 132.60 38.57Q131.48 38.75 130.51 38.75Z" transform="translate(0, 0)"></path></g></svg></svg>